<svg width="32" height="32" viewBox="0 0 32 32" fill="none" xmlns="http://www.w3.org/2000/svg">
<path d="M7.26145 19.326C7.13082 19.4692 7.04461 19.6472 7.01331 19.8385C6.98201 20.0298 7.00697 20.226 7.08516 20.4034C7.16335 20.5807 7.29139 20.7316 7.45371 20.8375C7.61603 20.9434 7.80563 20.9999 7.99945 21H23.9995C24.1933 21.0001 24.3829 20.9438 24.5453 20.8381C24.7077 20.7324 24.8359 20.5817 24.9143 20.4045C24.9927 20.2273 25.0179 20.0311 24.9869 19.8398C24.9558 19.6485 24.8699 19.4703 24.7395 19.327C23.4095 17.956 21.9995 16.499 21.9995 12C21.9995 10.4087 21.3673 8.88258 20.2421 7.75736C19.1169 6.63214 17.5908 6 15.9995 6C14.4082 6 12.882 6.63214 11.7568 7.75736C10.6316 8.88258 9.99945 10.4087 9.99945 12C9.99945 16.499 8.58845 17.956 7.26145 19.326Z" stroke="#3D3D3D" stroke-linecap="round" stroke-linejoin="round"/>
<path d="M14.268 25C14.4435 25.304 14.696 25.5565 15 25.732C15.3041 25.9075 15.6489 25.9999 16 25.9999C16.3511 25.9999 16.6959 25.9075 17 25.732C17.304 25.5565 17.5565 25.304 17.732 25" stroke="#3D3D3D" stroke-linecap="round" stroke-linejoin="round"/>
<circle cx="20.5" cy="6.5" r="4.5" fill="#FE6B5D"/>
</svg>
